<?xml version="1.0" standalone="no"?>
<!DOCTYPE svg PUBLIC "-//W3C//DTD SVG 20010904//EN"
 "http://www.w3.org/TR/2001/REC-SVG-20010904/DTD/svg10.dtd">
<svg version="1.0" xmlns="http://www.w3.org/2000/svg"
 width="512.000000pt" height="512.000000pt" viewBox="0 0 512.000000 512.000000"
 preserveAspectRatio="xMidYMid meet">

<g transform="translate(0.000000,512.000000) scale(0.100000,-0.100000)"
fill="#000000" stroke="none">
<path d="M1604 5029 c-16 -5 -46 -24 -65 -44 l-35 -34 -36 25 c-67 48 -157 50
-217 7 -14 -11 -103 -115 -198 -232 -190 -236 -203 -262 -182 -348 8 -31 25
-59 51 -85 39 -39 39 -40 22 -66 -19 -30 -107 -119 -576 -579 -352 -346 -360
-356 -338 -432 33 -116 204 -330 375 -471 204 -167 485 -306 734 -361 130 -28
336 -45 388 -30 50 14 96 50 112 88 6 16 38 242 71 503 33 261 62 489 65 507
6 32 48 93 65 93 5 0 102 -76 217 -168 394 -317 546 -426 798 -568 268 -151
435 -250 525 -313 87 -60 294 -224 930 -736 223 -180 264 -205 324 -205 76 1
105 27 291 258 206 258 221 292 174 388 -16 34 -59 74 -202 189 -100 80 -193
148 -205 152 -30 7 -76 -25 -80 -57 -7 -48 10 -68 165 -192 198 -158 202 -162
183 -192 -35 -56 -307 -386 -322 -391 -13 -5 -160 108 -525 402 -666 535 -676
542 -1138 803 -264 149 -426 261 -750 520 -159 128 -291 233 -292 234 -1 0 77
99 173 218 l175 217 282 -225 c311 -248 454 -349 687 -480 436 -245 551 -322
915 -614 124 -99 235 -184 248 -189 28 -11 81 9 91 34 13 35 5 64 -26 94 -18
16 -132 109 -253 206 -326 261 -468 357 -795 540 -218 122 -331 191 -440 269
-72 50 -556 432 -599 472 -11 10 -10 17 9 44 42 60 39 166 -7 220 -39 46 -618
509 -658 526 -38 16 -84 17 -131 3z m376 -380 c211 -169 300 -247 300 -261 0
-11 -73 -110 -162 -221 -89 -111 -235 -292 -323 -402 l-161 -200 -42 -335
c-23 -184 -42 -339 -42 -343 0 -9 -40 -5 -163 19 -94 19 -122 14 -142 -25 -19
-37 -5 -83 30 -99 22 -10 118 -31 218 -47 30 -5 37 -10 33 -23 -3 -9 -8 -48
-12 -87 -10 -108 -10 -107 -112 -100 -459 33 -904 275 -1153 628 -84 118 -84
107 0 191 l74 74 57 -71 c61 -78 180 -193 272 -263 127 -98 318 -204 368 -204
55 0 87 59 60 111 -6 10 -45 37 -88 58 -186 94 -379 247 -496 393 l-67 83 285
278 c256 249 306 304 488 530 385 480 449 557 464 557 8 0 149 -108 314 -241z
m-587 190 c8 -13 -23 -57 -154 -220 -90 -111 -167 -208 -171 -213 -9 -14 -60
34 -54 51 3 7 76 101 163 209 135 168 160 195 181 192 14 -2 29 -10 35 -19z"/>
<path d="M2320 1940 c-463 -15 -692 -53 -762 -127 -23 -24 -23 -28 -26 -269
l-3 -244 -222 0 -222 0 -42 43 c-58 59 -201 142 -298 173 -104 34 -225 41
-325 20 -128 -27 -338 -143 -393 -218 -31 -41 -33 -114 -5 -168 40 -77 226
-188 388 -231 66 -17 214 -15 289 5 82 22 171 63 247 112 32 21 64 42 71 47 7
5 4 -15 -8 -50 -43 -125 -18 -281 65 -405 55 -83 97 -111 153 -105 58 6 88 28
133 99 68 104 84 159 85 278 0 96 -3 111 -32 178 l-31 72 75 0 76 0 -7 -82
c-23 -295 -172 -584 -401 -780 l-80 -68 -447 0 -448 0 0 55 0 55 415 0 c402 0
416 1 435 20 30 30 27 83 -6 109 -26 21 -37 21 -458 21 -390 0 -434 -2 -466
-18 -54 -27 -70 -69 -70 -187 0 -116 15 -157 71 -187 32 -17 130 -18 2489 -18
2359 0 2457 1 2489 18 56 30 71 71 71 187 0 118 -16 160 -70 187 -32 16 -80
18 -548 18 l-512 0 -41 63 c-49 76 -99 180 -128 267 -48 148 -53 195 -58 599
l-5 385 -27 27 c-75 74 -368 112 -936 122 -132 2 -346 1 -475 -3z m857 -160
c336 -21 354 -31 93 -51 -339 -26 -1390 -11 -1423 20 -15 14 234 33 508 40
324 7 602 4 822 -9z m-1320 -185 c158 -18 524 -35 783 -35 362 0 849 29 948
56 l22 6 0 -241 c0 -398 31 -575 141 -793 50 -100 131 -219 197 -290 34 -36
62 -68 62 -72 0 -3 -615 -6 -1366 -6 l-1366 0 55 60 c196 211 325 504 344 778
l6 92 93 0 c103 0 136 10 153 47 15 33 14 47 -8 74 -17 22 -29 24 -128 29
l-108 5 -3 159 -3 158 25 -6 c14 -3 82 -13 153 -21z m-1202 -210 c33 -9 89
-30 125 -48 l65 -32 -127 -3 c-123 -3 -128 -3 -148 -29 -25 -32 -26 -64 -1
-94 18 -22 28 -24 147 -29 l129 -5 -70 -32 c-96 -43 -147 -55 -235 -55 -87 0
-172 25 -267 78 -67 37 -123 80 -123 95 0 13 127 94 187 120 116 50 215 60
318 34z m607 -342 c29 -60 33 -77 33 -148 0 -70 -4 -88 -31 -140 -17 -33 -37
-60 -45 -60 -7 0 -27 27 -44 59 -23 46 -31 75 -34 133 -3 69 -1 80 33 149 21
41 41 74 46 74 5 0 24 -30 42 -67z m3708 -768 l0 -55 -357 0 -356 0 -53 41
c-97 75 -124 69 345 69 l421 0 0 -55z"/>
</g>
</svg>
