<?xml version="1.0" standalone="no"?>
<!DOCTYPE svg PUBLIC "-//W3C//DTD SVG 20010904//EN"
 "http://www.w3.org/TR/2001/REC-SVG-20010904/DTD/svg10.dtd">
<svg version="1.0" xmlns="http://www.w3.org/2000/svg"
 width="512.000000pt" height="512.000000pt" viewBox="0 0 512.000000 512.000000"
 preserveAspectRatio="xMidYMid meet">

<g transform="translate(0.000000,512.000000) scale(0.100000,-0.100000)"
fill="#000000" stroke="none">
<path d="M2976 5083 c16 -95 79 -178 158 -214 23 -10 94 -27 159 -38 130 -21
160 -38 172 -93 12 -52 -11 -83 -131 -173 -163 -122 -202 -185 -191 -306 6
-66 33 -122 79 -165 50 -47 85 -61 208 -83 121 -22 151 -35 180 -84 36 -59 28
-100 -57 -273 l-78 -157 0 -91 c0 -80 4 -97 28 -144 15 -29 56 -82 90 -118
l62 -65 59 60 60 60 -61 64 c-69 71 -91 124 -75 180 6 17 43 99 83 182 71 145
74 152 74 225 0 89 -30 163 -90 222 -54 53 -109 77 -230 98 -126 23 -142 31
-161 77 -26 62 -8 90 116 183 126 94 161 130 185 194 21 55 17 154 -9 207 -22
47 -78 103 -123 124 -19 9 -91 27 -161 40 -115 20 -128 25 -154 54 -15 17 -28
40 -28 51 0 18 -7 20 -85 20 l-86 0 7 -37z"/>
<path d="M4134 5107 c-157 -62 -218 -246 -124 -375 52 -72 111 -103 200 -103
252 -2 341 330 124 457 -52 31 -150 41 -200 21z m136 -179 c13 -14 20 -35 20
-59 0 -71 -85 -105 -135 -54 -31 30 -32 73 -4 109 27 34 88 37 119 4z"/>
<path d="M1575 5049 c-136 -69 -193 -117 -227 -193 -31 -71 -31 -172 0 -241
29 -62 56 -91 157 -168 145 -109 163 -135 135 -188 -6 -10 -77 -64 -158 -118
-250 -167 -321 -273 -322 -482 0 -168 86 -324 228 -413 41 -25 207 -96 226
-96 9 0 26 35 61 131 5 13 -13 24 -86 53 -116 47 -168 83 -208 143 -85 128
-77 287 20 397 18 21 94 79 169 129 209 139 243 180 244 293 0 102 -27 142
-169 250 -142 108 -158 129 -152 202 5 69 25 89 161 158 61 31 112 58 114 59
3 3 -66 145 -71 144 -1 0 -56 -27 -122 -60z"/>
<path d="M2390 5035 l-54 -54 66 -68 c98 -102 99 -143 7 -240 -67 -71 -93
-130 -94 -213 0 -87 33 -155 120 -240 l65 -65 57 58 58 57 -57 57 c-65 68 -78
90 -78 136 0 36 34 91 85 137 52 48 70 96 70 190 0 63 -5 94 -19 120 -17 32
-153 180 -166 180 -3 0 -30 -25 -60 -55z"/>
<path d="M821 4773 c-99 -36 -170 -151 -158 -254 16 -129 118 -221 249 -221
135 0 241 106 241 242 0 95 -56 185 -141 226 -50 23 -138 27 -191 7z m148
-179 c28 -36 27 -79 -4 -109 -49 -50 -135 -17 -135 53 0 50 32 82 81 82 29 0
42 -6 58 -26z"/>
<path d="M4810 4451 c-113 -35 -182 -127 -181 -243 0 -137 105 -241 241 -241
66 0 132 27 177 73 51 52 68 96 68 175 0 58 -5 78 -28 117 -57 98 -177 149
-277 119z m120 -181 c13 -13 20 -33 20 -59 0 -73 -84 -108 -135 -56 -52 51
-17 135 56 135 26 0 46 -7 59 -20z"/>
<path d="M4093 4018 c-72 -76 -109 -144 -122 -227 -21 -128 20 -240 130 -356
38 -40 78 -92 89 -116 27 -61 26 -141 -4 -204 -29 -62 -57 -88 -172 -159 -147
-90 -203 -168 -212 -297 -11 -158 78 -287 241 -348 43 -16 59 -18 62 -8 18 48
45 131 45 138 0 4 -23 15 -51 24 -124 42 -175 182 -99 278 11 14 64 52 118 85
157 97 230 193 253 331 21 133 -24 257 -141 383 -76 83 -100 127 -100 184 0
67 22 116 82 179 l57 62 -58 57 -57 57 -61 -63z"/>
<path d="M2068 3963 l-57 -58 59 -62 c64 -67 86 -121 74 -176 -3 -17 -41 -100
-83 -185 -75 -152 -76 -156 -75 -231 0 -89 22 -146 80 -211 55 -61 113 -86
255 -110 68 -12 130 -27 138 -35 8 -7 17 -37 22 -66 11 -67 47 -121 104 -155
38 -22 62 -27 136 -32 l89 -5 0 87 0 86 -68 0 c-80 0 -102 15 -102 71 0 22
-12 56 -32 89 -43 71 -89 94 -240 119 -132 22 -171 39 -198 84 -36 59 -28 100
58 273 l77 157 0 91 c0 114 -21 161 -114 259 l-66 68 -57 -58z"/>
<path d="M1622 3934 c-86 -43 -132 -121 -132 -221 1 -75 25 -128 83 -179 77
-68 172 -82 262 -40 155 73 193 268 77 390 -77 80 -190 100 -290 50z m164
-158 c58 -50 24 -140 -52 -140 -28 0 -42 7 -60 28 -32 37 -30 71 5 107 36 35
70 37 107 5z"/>
<path d="M2483 3910 c13 -110 102 -226 210 -275 29 -13 99 -30 159 -39 149
-21 206 -55 256 -150 21 -41 26 -64 26 -121 0 -79 -7 -94 -92 -222 -30 -46
-53 -85 -51 -87 13 -11 129 -86 132 -86 9 0 127 186 149 235 20 43 23 66 23
161 0 107 -1 112 -38 186 -71 144 -180 217 -365 244 -59 9 -124 25 -145 35
-45 23 -92 86 -101 134 l-7 35 -81 0 -81 0 6 -50z"/>
<path d="M4669 3543 c-105 -110 -143 -216 -120 -340 17 -90 49 -148 130 -236
38 -42 77 -90 86 -107 25 -49 30 -130 11 -185 -25 -74 -58 -109 -165 -175
-167 -103 -231 -195 -231 -335 0 -162 122 -307 284 -337 15 -2 23 11 42 66 13
39 24 73 24 77 0 4 -17 13 -37 19 -64 20 -113 58 -134 103 -23 53 -24 91 0
142 23 50 45 69 152 133 175 105 245 224 237 406 -5 119 -33 180 -126 279 -86
90 -112 139 -112 207 0 68 19 110 80 174 27 29 50 57 50 62 0 5 -24 33 -53 62
l-53 53 -65 -68z"/>
<path d="M1789 2943 c-180 -92 -180 -344 0 -435 185 -94 393 66 351 269 -23
111 -125 193 -240 193 -42 0 -71 -7 -111 -27z m150 -148 c65 -33 50 -132 -23
-151 -28 -7 -81 18 -90 41 -17 46 -2 91 39 113 27 15 41 15 74 -3z"/>
<path d="M3160 2586 c0 -4 26 -59 59 -124 32 -64 61 -126 65 -137 6 -20 2 -20
-292 -17 -310 3 -349 0 -404 -40 -28 -19 -28 -19 -55 0 -56 39 -87 42 -393 42
l-298 0 -53 -28 -54 -28 -55 29 -55 28 -245 -3 c-243 -3 -246 -3 -303 -30 -32
-15 -77 -42 -98 -59 -22 -17 -130 -151 -240 -298 l-201 -266 -216 -5 c-207 -5
-218 -6 -250 -28 -18 -13 -41 -41 -52 -62 -19 -37 -20 -60 -20 -402 0 -357 0
-365 23 -408 15 -31 35 -51 66 -67 42 -22 55 -23 246 -23 l202 0 205 -272
c214 -285 244 -315 349 -360 51 -22 66 -23 299 -23 255 0 256 0 326 45 19 12
25 11 47 -7 51 -40 97 -44 407 -41 281 3 297 4 336 25 39 21 85 66 110 109 11
18 13 18 40 -7 45 -41 104 -76 169 -101 l60 -23 879 -3 c566 -2 898 1 935 8
31 5 92 28 136 49 229 113 342 391 254 628 -62 165 -177 268 -371 332 -113 37
-119 70 -31 164 79 85 98 125 97 212 0 123 -30 160 -254 309 l-145 96 -6 -107
c-4 -82 -11 -118 -27 -149 -32 -62 -68 -100 -117 -124 -25 -12 -45 -24 -45
-28 0 -3 10 -36 22 -74 13 -42 27 -68 36 -68 30 0 134 65 176 110 24 26 56 71
71 99 l26 52 30 -18 c45 -26 69 -61 69 -101 0 -28 -10 -46 -61 -100 -70 -74
-98 -129 -99 -187 0 -68 19 -114 68 -164 40 -41 61 -53 142 -80 145 -48 227
-121 267 -237 23 -67 15 -195 -17 -259 -31 -64 -101 -134 -165 -165 l-50 -25
-892 -3 c-880 -2 -892 -2 -947 18 -77 29 -148 96 -188 178 -29 59 -33 76 -33
147 0 121 34 184 165 304 57 53 118 120 142 158 l43 66 22 -49 c12 -27 25 -69
28 -94 13 -97 6 -90 97 -90 l81 0 -7 61 c-3 34 -11 79 -18 101 -14 46 -11 49
66 72 69 21 144 85 175 149 47 97 33 215 -34 299 -126 157 -132 240 -31 408
81 135 108 267 83 414 l-9 49 29 -7 c73 -19 140 -92 150 -165 l6 -41 84 0 85
0 -6 48 c-10 73 -69 184 -122 231 -69 60 -132 85 -309 121 -88 17 -170 34
-182 37 -13 3 -23 2 -23 -1z m-1557 -448 c48 -25 46 11 47 -979 0 -932 0 -936
-21 -963 l-20 -26 -215 0 c-234 0 -261 5 -318 58 -16 15 -116 143 -222 284
l-194 258 0 385 0 385 205 273 c211 282 236 308 319 328 53 12 395 10 419 -3z
m849 -16 l23 -23 0 -945 0 -946 -24 -19 c-22 -18 -42 -19 -304 -19 -274 0
-281 0 -304 22 l-23 21 0 942 c0 738 3 945 13 957 28 36 48 38 324 35 269 -2
273 -2 295 -25z m802 17 c48 -22 41 -54 -38 -182 -61 -98 -80 -170 -74 -272 6
-96 34 -167 94 -241 56 -68 64 -86 64 -133 0 -61 -37 -97 -123 -121 l-68 -19
-76 115 c-42 62 -79 114 -82 114 -4 0 -22 -46 -40 -102 -55 -172 -94 -242
-178 -325 -40 -40 -78 -73 -83 -73 -6 0 -10 216 -10 588 0 628 0 624 50 649
33 17 527 18 564 2z m-2756 -981 l2 -328 -170 0 -170 0 0 323 c0 178 3 327 7
331 4 3 79 5 167 4 l161 -3 3 -327z"/>
<path d="M3815 2048 c-10 -31 -36 -140 -33 -143 2 -2 32 -11 68 -20 117 -30
171 -77 191 -165 15 -68 -5 -123 -74 -197 l-60 -64 56 -57 57 -57 60 60 c38
37 73 85 93 125 29 58 32 73 32 155 0 72 -5 100 -22 138 -49 106 -125 171
-238 206 -99 30 -124 34 -130 19z"/>
<path d="M3570 1130 c-78 -156 -100 -225 -100 -315 0 -273 218 -482 503 -484
l78 -1 -3 83 -3 82 -95 6 c-80 4 -104 10 -148 34 -106 58 -166 161 -166 283 1
70 4 78 77 227 l76 155 -69 35 c-38 19 -72 35 -75 35 -3 0 -36 -63 -75 -140z"/>
<path d="M3966 993 c-14 -42 -25 -77 -23 -79 1 -1 27 -14 56 -29 70 -35 160
-125 191 -190 13 -27 25 -52 27 -54 5 -7 153 42 153 51 0 5 -16 40 -35 78 -59
118 -184 233 -307 284 l-36 16 -26 -77z"/>
</g>
</svg>
