<?xml version="1.0" standalone="no"?>
<!DOCTYPE svg PUBLIC "-//W3C//DTD SVG 20010904//EN"
 "http://www.w3.org/TR/2001/REC-SVG-20010904/DTD/svg10.dtd">
<svg version="1.0" xmlns="http://www.w3.org/2000/svg"
 width="512.000000pt" height="512.000000pt" viewBox="0 0 512.000000 512.000000"
 preserveAspectRatio="xMidYMid meet">

<g transform="translate(0.000000,512.000000) scale(0.100000,-0.100000)"
fill="#000000" stroke="none">
<path d="M2342 5104 c-85 -22 -159 -64 -226 -126 l-63 -57 -384 -3 c-368 -3
-386 -4 -430 -24 -60 -28 -125 -93 -152 -153 -30 -64 -30 -178 0 -242 27 -60
92 -125 152 -153 44 -20 61 -21 431 -24 l385 -3 53 -52 52 -51 0 -254 0 -253
-64 -29 c-90 -40 -162 -88 -241 -159 l-67 -61 -493 0 -493 0 -4 88 c-5 105
-28 162 -88 222 -81 81 -99 85 -392 85 l-258 0 -27 -28 -28 -27 0 -940 0 -940
28 -27 27 -28 258 0 c293 0 311 4 392 85 60 60 83 117 88 222 l4 88 490 0 490
0 66 -58 c126 -111 239 -172 393 -214 120 -32 318 -32 438 0 154 42 267 103
393 214 l66 58 356 0 356 0 32 -29 33 -29 5 -341 5 -341 28 -27 27 -28 171 -3
c143 -3 170 -6 165 -18 -3 -8 -27 -47 -54 -86 -185 -276 -326 -583 -339 -736
-21 -272 194 -548 472 -607 89 -19 161 -19 250 0 279 59 493 334 472 607 -13
158 -156 464 -358 765 l-49 72 175 3 175 3 27 28 28 27 3 443 c4 472 -2 558
-43 702 -102 351 -383 637 -732 745 -146 45 -220 50 -729 50 l-482 0 -67 61
c-79 71 -151 119 -241 159 l-64 29 0 253 0 254 53 51 52 52 385 3 c370 3 387
4 431 24 60 28 125 93 152 153 30 64 30 178 0 242 -27 60 -92 125 -152 153
-44 20 -62 21 -430 24 l-384 3 -63 57 c-131 121 -306 169 -462 126z m240 -212
c59 -26 124 -91 151 -151 30 -64 30 -178 0 -242 -27 -60 -92 -125 -152 -152
-64 -30 -178 -30 -242 0 -129 59 -202 206 -169 342 43 180 242 278 412 203z
m-617 -272 l0 -100 -319 0 -318 0 -34 34 c-37 37 -43 73 -20 115 27 49 39 50
376 51 l315 0 0 -100z m1661 66 c25 -24 34 -43 34 -66 0 -23 -9 -41 -34 -66
l-34 -34 -319 0 -318 0 0 100 0 100 318 0 319 0 34 -34z m-1066 -746 l0 -185
-100 0 -100 0 0 185 0 185 100 0 100 0 0 -185z m-1994 -314 l34 -34 0 -732 0
-732 -34 -34 -34 -34 -166 0 -166 0 0 800 0 800 166 0 166 0 34 -34z m2089
-96 c117 -37 201 -87 298 -180 l90 -85 561 -5 c541 -6 564 -7 641 -28 314 -88
560 -334 647 -647 21 -76 22 -102 26 -502 l3 -423 -400 0 -400 0 -3 288 c-3
269 -4 290 -24 333 -28 60 -93 125 -153 153 -45 20 -57 21 -472 21 l-427 0
-89 -86 c-73 -70 -108 -95 -184 -132 -102 -50 -210 -77 -309 -77 -99 0 -207
27 -309 77 -76 37 -111 62 -184 132 l-89 86 -539 3 -539 3 0 399 0 399 539 3
538 3 90 85 c115 110 224 168 374 200 71 15 235 5 314 -20z m1937 -2253 c95
-145 231 -385 266 -470 56 -134 67 -189 54 -268 -15 -89 -51 -159 -112 -219
-155 -156 -405 -156 -560 0 -61 60 -97 130 -112 219 -13 79 -2 134 54 268 48
116 318 573 338 573 3 0 35 -46 72 -103z"/>
<path d="M3585 3051 c-64 -27 -81 -110 -32 -158 20 -21 37 -28 67 -28 116 0
130 170 15 190 -16 2 -39 1 -50 -4z"/>
<path d="M3985 3051 c-62 -26 -81 -110 -34 -157 21 -20 41 -27 100 -35 139
-17 231 -60 319 -149 113 -112 141 -190 149 -417 6 -171 6 -173 33 -200 39
-38 97 -38 136 0 27 27 27 29 30 173 4 185 -12 274 -75 404 -38 79 -59 108
-132 181 -73 73 -102 94 -181 132 -129 62 -284 92 -345 68z"/>
</g>
</svg>
