<?xml version="1.0" standalone="no"?>
<!DOCTYPE svg PUBLIC "-//W3C//DTD SVG 20010904//EN"
 "http://www.w3.org/TR/2001/REC-SVG-20010904/DTD/svg10.dtd">
<svg version="1.0" xmlns="http://www.w3.org/2000/svg"
 width="385.000000pt" height="375.000000pt" viewBox="0 0 385.000000 375.000000"
 preserveAspectRatio="xMidYMid meet">

<g transform="translate(0.000000,375.000000) scale(0.100000,-0.100000)"
fill="#000000" stroke="none">
<path d="M1562 3738 c-7 -7 -12 -20 -12 -31 0 -14 -25 -30 -97 -64 -54 -24
-127 -58 -163 -75 -36 -17 -198 -93 -360 -170 -266 -125 -297 -137 -321 -127
-45 18 -71 -3 -67 -53 3 -37 -15 -69 -227 -419 -207 -340 -233 -378 -256 -379
-56 0 -77 -64 -34 -102 l25 -22 0 -459 0 -459 -25 -20 c-41 -32 -25 -98 24
-98 13 0 95 -121 280 -410 209 -329 261 -417 261 -444 0 -37 12 -46 63 -46 35
0 653 -233 678 -256 8 -8 25 -14 36 -14 33 0 135 -39 148 -56 11 -15 54 -17
452 -15 349 2 446 0 462 -11 25 -16 51 -3 66 32 6 15 164 126 445 312 348 230
442 288 468 288 39 0 55 29 40 73 -9 24 15 103 168 554 152 447 182 527 202
536 43 20 39 76 -8 100 -19 10 -51 95 -199 537 -167 496 -176 527 -163 553 12
24 12 31 -2 53 -18 26 -63 33 -83 13 -15 -15 9 -29 -479 290 -329 214 -401
265 -397 280 14 53 -59 85 -91 40 l-14 -21 -363 26 c-228 15 -365 29 -367 36
-12 36 -65 53 -90 28z m498 -83 c124 -8 238 -15 254 -15 16 0 27 -2 25 -5 -3
-2 -95 -12 -206 -20 l-200 -16 -117 36 c-64 20 -116 39 -116 42 0 2 30 2 68
-2 37 -3 168 -12 292 -20z m-297 -16 c56 -17 106 -35 110 -39 4 -4 -41 -10
-100 -14 -59 -3 -137 -9 -171 -13 l-64 -6 19 38 c14 26 31 42 54 50 47 17 40
18 152 -16z m-222 -28 c-22 -43 -55 -56 -117 -49 -27 3 -23 7 51 50 44 26 81
45 83 43 2 -1 -6 -21 -17 -44z m859 4 c0 -3 -21 -34 -46 -69 l-46 -64 -47 14
c-168 51 -283 92 -261 94 14 1 86 7 160 14 149 15 240 19 240 11z m-970 -10
c0 -2 -13 -11 -30 -20 -38 -19 -40 -11 -2 9 31 17 32 18 32 11z m1070 -90 c46
-68 61 -105 43 -105 -5 0 -54 15 -111 33 l-103 32 41 58 c25 35 48 57 60 57
13 0 36 -25 70 -75z m-380 9 c96 -30 175 -56 176 -57 2 -1 -26 -41 -61 -88
l-63 -86 -66 -17 -66 -16 -263 106 c-144 59 -266 110 -270 114 -7 6 15 65 26
71 7 4 284 26 342 28 60 1 96 -7 245 -55z m-625 -4 c-9 -16 -17 -30 -19 -30
-3 0 -26 10 -53 21 -45 21 -47 22 -23 29 14 5 44 8 68 9 l43 1 -16 -30z m1370
-183 c171 -109 315 -203 320 -209 9 -9 -85 35 -340 157 -103 49 -117 60 -215
160 -58 59 -98 104 -90 100 8 -5 155 -98 325 -208z m-1575 198 c0 -5 -89 -45
-99 -45 -8 1 81 49 92 50 4 0 7 -2 7 -5z m1310 -88 c0 -22 -33 3 -57 43 l-26
45 42 -40 c22 -21 41 -43 41 -48z m-1176 43 l46 -19 -77 -155 c-42 -85 -78
-154 -80 -152 -1 1 3 77 9 169 12 168 12 169 50 176 3 0 27 -8 52 -19z m-334
-156 l-191 -165 -130 28 c-71 15 -129 31 -129 36 0 4 26 20 58 34 80 36 565
232 575 233 4 0 -78 -75 -183 -166z m221 7 c-18 -198 -21 -211 -42 -211 -10 0
-23 -8 -28 -19 -10 -18 -16 -17 -157 15 -81 19 -149 36 -151 38 -2 2 83 79
189 171 147 127 194 163 197 149 2 -10 -2 -74 -8 -143z m-151 134 c-14 -8 -29
-14 -35 -14 -5 0 1 6 15 14 14 8 30 14 35 14 6 0 -1 -6 -15 -14z m597 -120
c133 -55 241 -100 239 -102 -1 -2 -148 -37 -326 -79 -279 -65 -325 -73 -337
-61 -12 12 -3 37 69 181 60 120 87 166 98 163 8 -2 124 -48 257 -102z m663 74
c52 -17 101 -33 109 -35 8 -2 11 -7 8 -11 -7 -6 -320 -83 -324 -79 -3 3 101
155 107 156 3 0 48 -14 100 -31z m250 -50 c0 -6 -4 -7 -10 -4 -5 3 -10 11 -10
16 0 6 5 7 10 4 6 -3 10 -11 10 -16z m-107 -33 c17 -13 17 -21 7 -98 -6 -45
-14 -85 -16 -87 -7 -8 -378 49 -387 58 -6 6 -4 19 6 34 12 19 39 29 154 56 76
18 152 36 168 41 42 11 48 11 68 -4z m260 -124 c89 -88 113 -122 88 -122 -31
0 -67 30 -160 134 -98 111 -101 116 -65 101 23 -9 81 -57 137 -113z m-99 8
c52 -58 93 -107 91 -109 -4 -3 -125 12 -204 26 l-33 6 7 70 c7 78 20 120 35
115 6 -2 52 -50 104 -108z m345 -74 c240 -113 279 -134 231 -123 -14 3 -85 13
-157 23 -108 15 -133 21 -133 34 0 24 -20 40 -50 40 -19 0 -46 20 -100 76 -44
44 -66 74 -55 70 12 -3 130 -57 264 -120z m-919 105 c0 -8 -61 -22 -69 -15 -2
1 12 7 30 13 19 5 35 10 37 10 1 1 2 -3 2 -8z m-84 -35 c10 -8 17 -17 14 -20
-3 -3 -158 -47 -343 -98 -319 -87 -340 -91 -365 -77 -64 35 -51 41 305 126
186 44 345 81 354 82 8 1 24 -5 35 -13z m-1316 -48 c58 -11 108 -24 113 -28 6
-5 -282 -260 -304 -268 -6 -3 -8 35 -5 95 l5 98 -12 -94 c-11 -84 -14 -95 -36
-103 -19 -7 -22 -14 -19 -38 3 -22 -2 -35 -20 -52 -16 -14 -23 -17 -20 -8 3 8
22 69 42 135 21 66 42 135 48 154 8 24 13 30 19 20 6 -9 9 3 9 33 0 41 4 49
28 61 37 20 33 20 152 -5z m1627 -12 c90 -12 166 -25 169 -29 7 -7 -37 -357
-46 -356 -6 0 -334 396 -338 409 -2 6 9 8 25 5 15 -3 101 -16 190 -29z m-378
-233 c-54 -136 -103 -251 -108 -256 -9 -9 -468 308 -463 321 2 7 624 179 654
181 13 1 -5 -51 -83 -246z m187 199 c17 -20 94 -114 173 -209 l142 -172 -19
-132 c-21 -158 -6 -147 -194 -148 l-127 -1 -128 91 c-70 50 -127 96 -125 102
4 16 183 468 194 490 14 28 50 20 84 -21z m-1108 -24 c117 -25 152 -36 152
-48 0 -14 -30 -42 -101 -98 -17 -13 -533 -116 -552 -109 -13 4 314 286 333
287 8 0 84 -14 168 -32z m1655 8 c99 -13 99 -13 148 -62 l49 -50 -97 -237
c-77 -187 -101 -237 -114 -235 -9 2 -58 52 -108 113 -74 89 -91 115 -87 135 3
14 15 100 27 193 l22 167 31 -5 c17 -3 75 -12 129 -19z m-2256 -188 l-62 -196
-153 -158 c-133 -137 -150 -152 -125 -108 48 87 397 663 400 660 2 -1 -25 -90
-60 -198z m2455 138 c26 -33 9 -40 -23 -10 -16 15 -29 31 -29 36 0 12 34 -5
52 -26z m258 -32 c121 -21 148 -29 166 -50 13 -13 28 -24 34 -24 16 0 14 -404
-3 -418 -20 -17 -111 95 -258 315 -71 106 -129 195 -129 198 0 10 47 5 190
-21z m-132 -101 c92 -138 102 -155 80 -133 -39 38 -188 211 -188 218 0 8 21
32 27 32 1 0 38 -53 81 -117z m-1803 77 c-8 -9 -15 -22 -15 -28 0 -7 -8 -12
-17 -12 -10 0 -29 -3 -43 -6 -21 -5 -18 0 20 34 25 22 51 37 58 35 10 -4 10
-9 -3 -23z m89 14 c24 -9 19 -24 -8 -24 -26 0 -40 12 -29 24 8 8 17 8 37 0z
m284 -201 c130 -93 240 -171 244 -174 5 -3 -4 -39 -20 -80 -21 -53 -35 -75
-49 -77 -15 -2 -86 61 -254 224 -129 125 -234 234 -234 243 0 14 29 27 64 30
7 1 119 -74 249 -166z m1470 -11 c179 -200 281 -342 247 -342 -3 0 -67 -14
-143 -31 l-137 -30 -143 37 c-107 29 -146 44 -156 59 -13 19 -5 44 78 248 50
125 94 227 97 227 4 0 74 -76 157 -168z m-1843 139 c5 -9 -295 -650 -318 -678
-5 -7 -15 -13 -21 -13 -10 0 -201 296 -201 312 0 4 94 88 208 186 181 157 214
181 255 190 64 13 70 13 77 3z m279 -242 c130 -127 236 -239 236 -248 0 -14
-52 -31 -276 -90 -152 -40 -277 -71 -279 -69 -4 4 54 607 60 626 2 6 9 12 14
12 5 0 115 -104 245 -231z m-445 217 c-67 -61 -383 -326 -388 -326 -5 0 -39
48 -76 106 -49 78 -64 109 -55 118 6 6 120 32 253 57 245 47 274 52 266 45z
m139 -326 c-17 -162 -34 -299 -37 -303 -11 -11 -219 -66 -225 -59 -3 3 -6 11
-6 19 0 14 291 645 295 641 2 -2 -11 -136 -27 -298z m2388 -249 c79 -233 141
-421 138 -418 -14 14 -224 362 -224 371 0 5 -9 20 -21 32 -15 16 -22 43 -29
110 -5 49 -16 148 -24 219 -9 72 -18 150 -21 175 l-5 45 21 -55 c11 -30 85
-246 165 -479z m-181 364 c20 -172 20 -174 -5 -168 -19 5 -20 14 -20 156 0 83
2 148 5 146 2 -3 11 -63 20 -134z m-2988 -156 c-61 -229 -63 -235 -102 -272
-44 -40 -59 -46 -51 -19 122 400 139 447 174 489 20 23 37 41 39 40 1 -2 -26
-109 -60 -238z m170 132 c35 -57 63 -107 61 -112 -4 -10 -260 -230 -265 -226
-2 3 99 396 112 435 9 26 29 5 92 -97z m2019 -102 c30 -36 54 -76 54 -88 0
-20 -4 -21 -103 -21 l-103 0 17 118 c9 64 18 119 18 122 2 5 34 -30 117 -131z
m-2282 -46 c-92 -291 -86 -276 -119 -285 -25 -6 -36 -2 -80 32 -79 61 -74 73
98 248 78 78 142 142 143 142 1 0 -18 -62 -42 -137z m1655 8 l110 -78 -67 -7
c-96 -9 -210 -7 -216 3 -5 8 52 161 60 161 2 0 53 -35 113 -79z m-1210 -155
c50 -81 91 -158 91 -171 0 -19 -22 -36 -118 -94 -64 -39 -124 -71 -132 -71
-30 0 -281 103 -277 114 3 6 10 37 17 69 l13 58 151 130 c82 71 153 126 157
122 4 -5 48 -75 98 -157z m1901 67 c0 -5 -22 -42 -49 -84 -46 -73 -51 -77 -93
-83 -38 -6 -49 -3 -70 15 -23 20 -24 26 -16 78 13 86 6 81 123 81 58 0 105 -3
105 -7z m208 -30 c56 -15 99 -30 95 -34 -12 -11 -211 -51 -221 -45 -14 8 -35
93 -27 106 4 6 17 9 29 6 11 -3 67 -18 124 -33z m-644 -63 c77 -55 115 -89
111 -98 -3 -7 -5 -18 -5 -23 0 -5 -5 -9 -11 -9 -7 0 -158 -48 -336 -106 -179
-58 -326 -104 -328 -102 -8 8 111 388 122 388 6 0 60 -61 119 -135 59 -74 109
-133 111 -131 3 2 -44 65 -102 139 -59 75 -108 139 -108 144 -2 8 185 21 264
18 40 -2 60 -12 163 -85z m191 43 c-10 -71 -13 -77 -41 -90 -25 -12 -33 -8
-108 44 -148 103 -149 93 13 93 l142 0 -6 -47z m286 10 c6 -16 13 -40 16 -55
5 -25 3 -27 -58 -41 -35 -8 -65 -13 -67 -12 -6 5 80 135 89 135 5 0 14 -12 20
-27z m637 15 c13 -13 15 -73 4 -98 -6 -14 -25 -11 -142 21 -103 28 -129 38
-110 43 63 16 197 44 216 45 11 1 25 -4 32 -11z m92 -26 c0 -15 -2 -15 -10 -2
-13 20 -13 33 0 25 6 -3 10 -14 10 -23z m-1680 11 c0 -16 -113 -389 -120 -397
-10 -10 -388 -135 -411 -136 -8 0 -30 16 -49 35 l-33 34 16 156 c8 86 18 159
21 162 6 6 542 150 564 152 6 1 12 -2 12 -6z m1644 -43 c27 -41 26 -70 -3 -70
-32 0 -39 14 -34 63 3 26 7 47 8 47 1 0 14 -18 29 -40z m-213 -32 c181 -48
165 -31 150 -163 -8 -68 -13 -77 -163 -315 -106 -169 -160 -246 -174 -248 -17
-2 -32 36 -133 348 -63 193 -111 353 -108 356 4 5 228 58 261 63 4 0 80 -18
167 -41z m-337 -366 c61 -185 112 -344 115 -352 4 -12 -206 228 -414 473 l-49
59 22 41 c39 73 55 88 113 102 111 27 90 59 213 -323z m-2738 282 c37 -31 54
-53 54 -69 0 -13 9 -30 20 -38 20 -14 20 -16 5 -83 -9 -38 -19 -78 -22 -88 -4
-13 -25 36 -64 145 -32 90 -59 167 -59 172 0 14 14 6 66 -39z m3285 26 c26
-14 24 -26 -16 -90 -38 -61 -41 -56 -29 48 7 54 12 59 45 42z m-3301 -184 l62
-173 -65 -279 -66 -279 0 453 c-1 248 1 452 3 452 2 0 31 -78 66 -174z m229
118 c-14 -59 -13 -56 -31 -49 -20 8 -12 53 15 82 11 13 22 21 24 19 2 -2 -1
-25 -8 -52z m2216 29 c-10 -16 -25 -38 -33 -51 -14 -21 -16 -22 -34 -6 -12 12
-15 21 -8 28 5 5 10 18 10 27 0 18 17 26 59 28 23 1 23 1 6 -26z m-1385 0 c0
-47 -24 -273 -30 -273 -3 0 -52 46 -108 103 -66 66 -101 108 -97 118 3 8 46
25 103 41 119 32 132 33 132 11z m2303 -45 c4 -29 14 -191 23 -360 l17 -307
-54 -65 c-30 -36 -57 -65 -60 -65 -4 -1 -28 8 -53 20 -46 20 -47 22 -42 57 3
20 15 163 26 317 11 154 25 293 30 308 13 41 83 147 96 147 7 0 14 -23 17 -52z
m140 -127 c107 -161 118 -183 112 -211 -4 -19 -2 -36 5 -45 12 -15 -10 -45
-163 -220 -35 -40 -35 -40 -40 -15 -3 14 -13 151 -22 305 -8 154 -18 299 -21
323 -3 23 -2 42 3 42 4 0 61 -81 126 -179z m-1243 133 c11 -13 5 -43 -35 -185
-26 -93 -51 -171 -54 -174 -7 -4 -208 245 -216 268 -3 8 43 28 138 59 169 55
152 52 167 32z m103 -33 c10 -7 17 -17 17 -22 0 -5 -34 -64 -76 -132 -108
-173 -105 -169 -109 -165 -2 2 10 48 26 103 75 254 65 230 97 230 16 0 36 -6
45 -14z m-1588 -38 c-4 -27 -10 -77 -14 -113 -8 -75 2 -73 -129 -23 -60 23
-90 39 -84 45 13 13 215 136 225 137 4 1 5 -20 2 -46z m142 -75 c106 -105 134
-148 98 -148 -8 0 -24 -9 -36 -21 l-20 -20 -96 37 -95 38 6 46 c3 25 8 75 12
113 4 37 9 67 13 67 3 0 56 -51 118 -112z m-715 86 c5 -5 -5 -57 -19 -94 -3
-9 -10 3 -19 30 -8 25 -12 51 -9 58 4 12 37 17 47 6z m161 -62 c94 -36 125
-51 115 -59 -28 -21 -236 -143 -246 -143 -5 0 -17 27 -26 59 -15 55 -15 64 0
125 9 36 19 66 23 66 3 0 64 -22 134 -48z m2253 -209 c120 -141 222 -262 227
-269 4 -7 -137 36 -312 94 -226 75 -321 111 -324 123 -4 15 170 307 184 309 3
0 104 -116 225 -257z m-2463 175 c16 -59 16 -67 -2 -128 -21 -76 -42 -88 -59
-35 -9 30 -7 55 11 135 12 54 24 97 28 95 3 -2 13 -33 22 -67z m1886 -67 c61
-76 111 -147 111 -157 0 -16 -54 -36 -352 -130 -252 -80 -354 -108 -356 -98
-4 15 103 383 115 395 5 5 89 35 188 68 99 32 181 59 182 60 0 1 51 -61 112
-138z m1167 -234 c-13 -159 -26 -291 -29 -293 -3 -3 -60 18 -126 46 -110 47
-121 55 -121 78 0 35 294 507 298 478 1 -12 -9 -151 -22 -309z m-2570 232 c60
-22 110 -42 112 -44 2 -2 -9 -118 -24 -259 -27 -245 -29 -255 -51 -261 -18 -4
-60 24 -205 135 l-183 141 -27 81 c-15 45 -26 84 -23 86 16 17 263 161 276
161 9 1 65 -17 125 -40z m865 -106 c-16 -54 -41 -137 -55 -185 -15 -49 -32
-88 -39 -88 -7 0 -70 58 -142 130 -107 108 -126 130 -110 136 81 32 371 119
373 113 2 -4 -10 -52 -27 -106z m-1312 55 c22 -60 22 -65 -5 -82 -14 -10 -28
-15 -31 -13 -5 6 18 117 24 117 2 0 7 -10 12 -22z m744 -60 c17 -7 27 -17 27
-31 0 -11 7 -28 14 -36 13 -15 4 -38 -83 -206 -80 -155 -102 -192 -124 -199
-21 -8 -31 -6 -43 6 -15 15 -14 35 10 250 14 128 29 243 31 255 l5 22 68 -26
c37 -14 79 -30 95 -35z m147 27 c13 -14 19 -25 13 -25 -5 0 -20 11 -33 25 -13
14 -19 25 -13 25 5 0 20 -11 33 -25z m-996 -68 c-3 -15 -1 -34 5 -41 8 -9 -4
-54 -46 -169 -32 -86 -59 -155 -60 -153 -2 2 17 95 42 207 25 111 45 205 45
208 0 3 5 -1 10 -9 6 -8 7 -28 4 -43z m1173 -109 c73 -73 133 -136 133 -141 0
-9 -31 -21 -76 -31 -29 -6 -34 -2 -125 111 -52 65 -98 123 -102 130 -12 19 3
63 21 63 9 0 76 -60 149 -132z m-1028 80 c7 -24 15 -52 18 -62 4 -16 -3 -13
-37 14 -51 40 -59 59 -35 76 30 22 41 17 54 -28z m1916 -50 c-88 -291 -178
-575 -184 -581 -7 -6 -452 332 -501 381 -13 13 -13 15 0 20 21 9 683 220 692
221 3 1 0 -18 -7 -41z m378 -65 c227 -76 321 -113 329 -126 5 -10 8 -20 6 -21
-37 -32 -692 -496 -698 -496 -13 0 -13 -20 6 380 16 354 18 370 31 370 4 0
151 -48 326 -107z m-1364 -25 c55 -67 99 -124 97 -125 -6 -7 -430 -122 -434
-119 -2 2 38 85 87 185 117 233 109 231 250 59z m-922 -271 c61 -204 110 -373
108 -375 -2 -2 -85 56 -184 129 -153 113 -181 138 -181 159 0 14 -4 30 -9 36
-6 5 19 88 67 221 42 117 79 210 82 207 3 -3 55 -173 117 -377z m-23 333 c42
-32 48 -42 75 -130 55 -175 190 -630 193 -647 5 -31 -26 -24 -69 14 l-42 38
-111 370 c-61 204 -114 378 -117 389 -6 22 2 18 71 -34z m1942 -298 c-9 -158
-16 -306 -16 -330 0 -29 -5 -45 -15 -48 -16 -6 -144 83 -145 101 -1 27 185
614 188 590 2 -14 -4 -155 -12 -313z m1371 143 c-99 -199 -103 -203 -105 -85
-1 43 3 50 95 158 53 61 98 112 100 112 1 0 -39 -83 -90 -185z m-50 -277 c-72
-213 -133 -385 -135 -383 -2 1 13 88 34 192 31 160 41 191 61 208 16 14 23 29
21 48 -2 17 24 80 72 177 41 82 75 148 76 147 1 -1 -57 -176 -129 -389z
m-2882 139 c84 -66 84 -71 14 -265 -34 -92 -66 -179 -71 -194 -5 -16 -15 -28
-22 -28 -7 0 -55 144 -115 346 -56 191 -105 354 -109 362 -5 13 110 -71 303
-221z m809 115 c2 -4 -1 -34 -8 -66 l-11 -59 -43 50 c-23 28 -42 53 -42 57 0
14 95 31 104 18z m295 -207 c138 -108 251 -201 251 -206 0 -6 -12 -50 -27 -99
l-26 -88 -46 -14 c-25 -7 -49 -13 -53 -13 -4 0 -95 108 -203 240 l-196 240 6
58 c8 72 14 90 31 83 7 -3 126 -93 263 -201z m1175 25 c-7 -85 -13 -167 -13
-182 -1 -26 -8 -29 -297 -125 l-295 -98 -47 26 c-26 14 -47 31 -47 37 0 15
697 514 705 505 4 -4 1 -78 -6 -163z m141 48 c63 -73 104 -127 100 -136 -3 -7
-5 -20 -5 -27 0 -14 -224 -94 -235 -84 -8 8 21 369 30 369 2 0 52 -55 110
-122z m40 73 c59 -27 111 -53 116 -58 6 -6 7 -32 3 -61 -8 -61 -29 -75 -59
-39 -11 14 -55 66 -98 116 -43 50 -76 91 -74 91 2 0 53 -22 112 -49z m-1727
-28 c31 -38 51 -72 48 -82 -3 -9 -26 -122 -51 -251 -25 -129 -48 -243 -51
-252 -4 -15 -17 -18 -63 -18 l-57 0 -195 221 c-107 121 -195 224 -197 229 -2
5 6 26 16 47 l20 38 228 67 c126 36 234 66 239 67 6 0 34 -30 63 -66z m2065
-78 c-14 -10 -24 -11 -46 -2 -16 7 -28 17 -27 22 1 6 20 32 43 60 l42 50 3
-59 c2 -46 0 -61 -15 -71z m-123 5 c0 -4 -15 -24 -34 -46 -43 -49 -58 -39 -50
32 l6 51 39 -15 c22 -8 39 -18 39 -22z m-2505 -31 c-13 -24 -19 -28 -30 -19
-23 19 -6 42 38 49 4 0 0 -13 -8 -30z m828 -221 c97 -119 177 -219 177 -222 0
-2 -43 -19 -96 -36 -93 -31 -100 -32 -234 -28 -76 2 -142 7 -146 10 -6 7 82
492 94 511 6 11 -4 22 205 -235z m1742 228 c19 -8 41 -28 50 -46 16 -30 14
-41 -41 -303 -31 -150 -58 -274 -60 -276 -9 -10 -16 15 -45 178 l-31 172 59
65 c109 123 126 149 31 49 l-95 -99 -7 43 c-6 37 -3 48 15 67 16 18 20 30 16
54 -6 25 -1 37 29 70 20 22 38 40 40 40 3 0 20 -6 39 -14z m-2611 -49 c9 -15
-4 -47 -74 -182 -46 -90 -86 -163 -87 -161 -2 1 25 84 60 184 63 184 74 202
101 159z m202 -224 c98 -109 184 -206 193 -216 14 -17 9 -18 -115 -12 -71 3
-195 8 -275 11 -200 8 -196 -3 -76 233 51 99 93 181 94 181 1 0 82 -89 179
-197z m-544 -282 c2 -15 12 -30 24 -35 17 -8 25 -35 52 -164 28 -134 33 -178
19 -161 -5 5 -475 736 -495 769 -8 14 77 -67 191 -179 145 -145 207 -212 209
-230z m-113 236 c71 -54 97 -81 106 -107 20 -59 26 -90 17 -90 -4 0 -93 89
-198 197 l-189 197 85 -62 c47 -34 127 -95 179 -135z m2859 160 c-8 -34 -283
-467 -286 -450 -3 20 25 384 30 387 10 7 226 74 241 75 11 1 17 -5 15 -12z
m55 -65 l9 -52 -154 -168 c-161 -176 -184 -202 -175 -202 3 0 76 78 163 173
86 94 160 173 163 175 4 1 20 -70 36 -159 39 -218 43 -211 -132 -222 -70 -4
-150 -6 -177 -5 -82 5 -80 19 43 214 183 293 192 305 204 301 7 -2 16 -27 20
-55z m-342 -219 l-15 -202 -26 -11 c-28 -12 -47 -3 -420 198 l-84 45 274 93
c151 50 278 89 281 85 3 -3 -1 -97 -10 -208z m-757 123 l28 -23 -93 -32 c-51
-17 -94 -29 -96 -27 -4 4 35 142 44 159 4 7 54 -26 117 -77z m156 -86 c0 -6
-98 -40 -114 -40 -7 0 2 46 16 72 8 16 11 16 53 -4 25 -12 45 -25 45 -28z
m-114 23 c-3 -10 -8 -30 -11 -44 -6 -24 -18 -31 -98 -56 -90 -29 -92 -29 -106
-10 -10 14 -11 27 -5 45 8 22 24 31 94 53 104 33 133 36 126 12z m-1696 -55
c21 -15 30 -30 30 -50 0 -18 8 -33 25 -44 30 -20 32 -34 5 -34 -13 0 -24 10
-30 25 -5 14 -16 25 -25 25 -15 0 -26 20 -39 73 -8 33 -4 33 34 5z m2102 -118
c133 -71 244 -133 246 -138 4 -14 -456 -186 -471 -175 -7 5 -63 49 -125 98
-128 101 -121 81 -83 230 l17 70 75 26 c40 15 80 24 86 22 7 -3 122 -63 255
-133z m-648 106 c-8 -21 -74 -36 -74 -17 0 9 44 29 67 30 7 1 10 -5 7 -13z
m-86 -28 c7 -7 8 -17 1 -30 -8 -15 -22 -18 -78 -18 -37 0 -71 3 -75 8 -4 4 23
17 61 29 84 26 77 25 91 11z m302 -2 c0 -17 -43 -186 -47 -186 -9 0 -133 101
-133 108 1 19 21 31 90 55 79 27 90 30 90 23z m-1091 -35 l143 -6 34 -40 c18
-22 30 -46 26 -52 -5 -8 -85 -5 -296 13 l-290 23 -29 29 c-55 55 -63 54 412
33z m222 -7 c32 -5 35 -9 31 -31 -3 -13 -11 -27 -19 -30 -15 -6 -49 20 -64 49
-11 20 -6 21 52 12z m269 -12 c0 -4 -47 -23 -105 -42 -116 -37 -132 -35 -120
19 l7 31 109 0 c60 0 109 -4 109 -8z m-924 -24 l19 -21 -34 7 c-40 7 -45 11
-36 25 10 17 30 13 51 -11z m1209 14 c6 -4 16 -17 23 -30 12 -21 7 -35 -55
-148 -37 -68 -72 -124 -78 -123 -17 1 -376 204 -378 213 -1 6 57 29 128 52
119 38 139 42 240 43 61 0 115 -3 120 -7z m-1278 -47 c10 -27 -6 -30 -29 -7
l-22 22 22 0 c12 0 25 -7 29 -15z m408 -275 c189 -170 311 -288 313 -301 4
-23 -15 -42 -35 -34 -7 2 -161 131 -343 285 -268 228 -330 285 -330 305 0 23
4 25 43 25 42 0 48 -5 352 -280z m1075 224 c56 -44 60 -50 54 -78 -4 -17 -18
-80 -33 -140 -36 -149 -40 -150 -196 -65 -63 34 -115 65 -115 68 0 3 31 62 68
130 60 110 71 124 96 127 15 2 31 6 34 9 9 9 26 0 92 -51z m-1480 -137 c0 -72
-3 -128 -6 -124 -3 3 -17 64 -30 134 -13 70 -26 138 -29 151 l-6 24 36 -27 35
-27 0 -131z m450 163 c140 -11 259 -25 264 -30 6 -6 20 -10 33 -10 23 0 413
-207 413 -219 -1 -3 -33 -64 -73 -135 l-72 -129 -100 -29 c-55 -15 -107 -28
-116 -28 -8 0 -26 12 -40 26 l-24 26 2 236 1 237 -9 -200 c-4 -110 -10 -213
-11 -229 -3 -27 -14 -19 -223 174 -383 354 -359 330 -328 330 16 0 143 -9 283
-20z m-98 -334 c170 -143 306 -261 305 -263 -2 -2 -142 50 -310 114 -273 105
-307 120 -307 140 0 12 -7 28 -15 37 -12 11 -15 41 -15 137 0 114 1 121 18
108 9 -8 155 -131 324 -273z m2348 250 c-20 -17 -592 -348 -596 -343 -7 7 188
312 198 309 6 -1 22 5 37 15 20 14 54 19 141 24 225 11 236 10 220 -5z m-1029
-92 c60 -48 107 -90 102 -95 -4 -4 -68 -30 -141 -57 -104 -39 -134 -47 -139
-36 -6 17 52 274 63 274 2 0 54 -39 115 -86z m575 35 c-14 -17 -23 -36 -19
-42 3 -7 3 -9 -2 -5 -9 9 -35 -9 -35 -24 0 -6 7 -4 17 3 13 12 -24 -50 -113
-187 -15 -21 -44 -34 -44 -18 0 3 32 46 71 96 39 49 69 92 66 94 -3 3 -42 -42
-88 -99 l-82 -105 -89 70 c-48 38 -90 73 -92 77 -4 7 403 169 427 171 5 0 -3
-14 -17 -31z m399 -8 c-14 -12 -657 -440 -730 -484 l-60 -37 85 80 c62 58 92
80 111 80 28 0 45 14 50 43 3 11 105 75 274 172 149 85 272 155 275 155 2 0 0
-4 -5 -9z m-1339 -183 c63 -35 114 -66 114 -70 0 -3 -24 -13 -52 -22 -252 -72
-310 -87 -315 -83 -7 8 117 237 129 237 6 0 61 -28 124 -62z m612 -37 c45 -35
82 -67 82 -71 0 -27 -37 -42 -190 -74 l-165 -34 -73 65 c-40 36 -71 70 -70 75
2 6 71 36 153 68 116 44 154 54 165 46 9 -6 53 -40 98 -75z m-357 -124 c44
-39 59 -58 49 -61 -8 -3 -103 -24 -210 -47 -165 -34 -212 -41 -304 -40 -60 1
-111 3 -113 5 -4 3 33 84 43 95 2 2 85 27 186 57 241 69 262 69 349 -9z m449
-5 c0 -9 -51 -58 -85 -82 -20 -15 -20 -15 0 10 55 69 85 95 85 72z m-115 -81
c-40 -49 -65 -72 -81 -73 -13 -1 -30 -2 -38 -2 -14 -1 -111 83 -104 90 5 5
272 61 276 58 2 -1 -22 -34 -53 -73z m-915 -11 c-20 -40 -21 -40 -79 -40 -40
0 -63 5 -71 15 -7 8 -11 15 -9 16 2 0 38 11 79 24 104 32 104 32 80 -15z
m-221 17 c6 -8 8 -17 4 -20 -7 -8 -33 11 -33 24 0 13 16 11 29 -4z m947 -51
c32 -30 57 -56 54 -58 -7 -6 -467 26 -474 32 -5 5 307 76 345 79 9 1 42 -23
75 -53z m-903 7 c-7 -2 -21 -2 -30 0 -10 3 -4 5 12 5 17 0 24 -2 18 -5z m44
-38 l28 -25 -50 17 c-64 20 -78 33 -38 33 20 0 43 -10 60 -25z m50 4 c-14 -8
-22 -8 -30 0 -8 8 -3 11 19 11 25 -1 27 -2 11 -11z m210 -5 c-3 -3 -34 -12
-69 -19 -48 -10 -65 -11 -70 -2 -15 24 -7 27 69 27 42 0 74 -3 70 -6z m367
-24 c154 -11 282 -22 284 -25 3 -3 -168 -4 -379 -4 -211 1 -377 3 -369 6 12 3
73 17 180 42 3 0 131 -8 284 -19z"/>
</g>
</svg>
