<?xml version="1.0" standalone="no"?>
<!DOCTYPE svg PUBLIC "-//W3C//DTD SVG 20010904//EN"
 "http://www.w3.org/TR/2001/REC-SVG-20010904/DTD/svg10.dtd">
<svg version="1.0" xmlns="http://www.w3.org/2000/svg"
 width="288.000000pt" height="288.000000pt" viewBox="0 0 288.000000 288.000000"
 preserveAspectRatio="xMidYMid meet">

<g transform="translate(0.000000,288.000000) scale(0.100000,-0.100000)"
fill="#000000" stroke="none">
<path d="M1258 2554 c-410 -63 -749 -359 -889 -774 -90 -271 -72 -564 52 -820
70 -145 90 -170 138 -170 78 0 92 63 36 157 -46 78 -81 166 -107 271 -27 111
-30 320 -5 429 19 81 74 233 86 233 16 0 54 -101 90 -245 45 -174 82 -260 142
-328 105 -120 265 -149 347 -64 57 60 64 110 31 224 -13 43 -19 82 -15 97 4
15 38 59 77 99 88 91 113 135 113 207 1 48 -5 65 -43 128 l-44 72 17 43 c9 24
37 72 62 107 52 71 83 134 84 168 0 33 20 36 125 24 89 -11 184 -36 260 -68
34 -14 36 -16 22 -32 -30 -32 -66 -127 -76 -195 -18 -125 19 -265 81 -310 41
-31 101 -26 147 11 37 30 40 30 172 34 74 2 140 6 148 8 18 6 62 -100 88 -210
21 -90 24 -295 4 -385 -52 -246 -188 -470 -363 -600 l-38 -27 -25 53 c-47 102
-29 196 68 346 136 211 158 340 76 453 -43 59 -98 84 -184 83 -59 0 -105 -12
-290 -72 -121 -40 -238 -81 -260 -91 -112 -54 -169 -146 -184 -300 -11 -108
-1 -218 23 -256 18 -26 92 -84 109 -84 24 0 48 -38 68 -104 25 -85 61 -150 94
-172 48 -31 30 -37 -87 -31 -195 11 -366 66 -523 171 -38 25 -77 46 -88 46
-48 0 -83 -48 -71 -96 13 -53 237 -182 394 -227 435 -126 919 29 1205 386 79
99 176 288 205 402 69 269 42 540 -80 791 -216 444 -699 695 -1192 618z m22
-159 c0 -2 -31 -52 -69 -110 -106 -160 -114 -233 -39 -346 30 -44 38 -64 32
-81 -3 -13 -40 -58 -81 -101 -114 -120 -135 -190 -93 -312 34 -98 23 -119 -46
-90 -86 36 -128 111 -179 315 -41 164 -63 222 -110 296 -19 30 -35 57 -35 61
0 3 21 31 47 61 58 68 172 159 260 209 105 58 313 124 313 98z m782 -201 c38
-30 94 -86 124 -122 l55 -67 -128 -5 c-97 -4 -136 -10 -161 -23 -19 -10 -36
-16 -39 -13 -14 13 -5 163 11 201 15 36 52 85 64 85 3 0 36 -25 74 -56z m-64
-791 c38 -52 20 -125 -64 -258 -31 -50 -73 -124 -93 -165 -34 -72 -36 -80 -36
-180 1 -97 3 -110 32 -172 l32 -68 -46 -20 -46 -20 -51 24 c-28 13 -71 33 -96
45 -54 25 -60 34 -90 133 -27 92 -70 147 -140 183 -43 22 -48 28 -54 67 -8 59
8 186 29 232 11 22 33 46 59 60 32 19 365 134 461 159 34 9 89 -2 103 -20z"/>
</g>
</svg>
