<?xml version="1.0" standalone="no"?>
<!DOCTYPE svg PUBLIC "-//W3C//DTD SVG 20010904//EN"
 "http://www.w3.org/TR/2001/REC-SVG-20010904/DTD/svg10.dtd">
<svg version="1.0" xmlns="http://www.w3.org/2000/svg"
 width="512.000000pt" height="512.000000pt" viewBox="0 0 512.000000 512.000000"
 preserveAspectRatio="xMidYMid meet">

<g transform="translate(0.000000,512.000000) scale(0.100000,-0.100000)"
fill="#000000" stroke="none">
<path d="M4344 4851 c-29 -13 -51 -43 -102 -137 -42 -79 -43 -80 -135 -130
-131 -72 -163 -128 -119 -213 13 -26 39 -47 112 -87 l95 -52 56 -98 c41 -72
64 -102 89 -116 82 -44 134 -15 209 116 l56 98 94 52 c101 56 131 91 131 152
0 53 -37 93 -137 148 l-92 51 -48 88 c-26 49 -58 98 -70 109 -25 23 -104 34
-139 19z m100 -241 c39 -73 66 -98 154 -145 28 -16 52 -31 52 -34 0 -3 -35
-24 -78 -47 -74 -39 -78 -43 -122 -122 -25 -45 -47 -81 -50 -81 -3 0 -25 36
-49 80 -42 76 -49 83 -118 121 -40 22 -75 44 -78 49 -3 4 18 20 47 35 85 42
115 70 154 144 20 39 39 70 43 70 4 0 24 -32 45 -70z"/>
<path d="M633 3611 c-20 -13 -47 -50 -80 -110 l-48 -90 -90 -49 c-105 -58
-130 -86 -130 -147 0 -61 25 -90 131 -149 l91 -50 47 -88 c57 -107 82 -128
147 -128 63 0 93 27 152 135 43 78 46 81 133 130 96 55 134 97 134 150 0 52
-37 93 -135 149 -88 50 -90 53 -135 133 -25 45 -55 92 -67 104 -31 31 -108 37
-150 10z m110 -231 c40 -73 59 -91 145 -134 30 -15 51 -30 48 -33 -3 -4 -38
-25 -77 -47 -66 -37 -76 -48 -112 -113 -23 -40 -43 -73 -46 -73 -4 0 -24 33
-46 73 -37 66 -46 76 -113 114 -40 22 -75 43 -78 46 -2 2 27 21 65 41 77 40
94 58 137 140 16 31 31 56 34 56 3 0 23 -31 43 -70z"/>
<path d="M2503 2341 c-20 -13 -48 -50 -80 -107 -50 -91 -61 -101 -182 -167
-82 -44 -110 -110 -76 -181 14 -30 70 -69 172 -120 23 -11 45 -41 83 -109 58
-105 85 -127 153 -127 61 0 86 23 142 128 l47 87 91 50 c103 57 128 84 129
141 1 68 -21 95 -125 152 l-94 52 -49 92 c-53 99 -86 128 -144 128 -19 0 -49
-9 -67 -19z m106 -229 c34 -67 55 -88 139 -134 l63 -35 -78 -44 c-73 -41 -81
-49 -122 -122 l-44 -77 -44 79 c-40 70 -52 83 -102 110 -101 54 -100 53 -39
86 88 47 102 60 142 134 22 39 43 68 48 65 5 -3 21 -31 37 -62z"/>
<path d="M1005 2115 c-31 -30 -32 -66 -2 -99 12 -13 211 -167 442 -341 231
-175 427 -324 435 -332 13 -12 12 -13 -10 -4 -14 5 -288 138 -610 295 -322
157 -592 286 -601 286 -9 0 -28 -9 -43 -21 -27 -21 -35 -64 -17 -97 5 -9 268
-143 585 -297 316 -153 574 -281 572 -282 -2 -2 -296 78 -655 177 -587 163
-655 180 -685 170 -19 -6 -42 -20 -51 -30 -10 -11 -37 -84 -60 -163 l-41 -142
-50 -6 c-68 -9 -118 -34 -158 -80 -87 -102 -68 -249 43 -328 28 -20 234 -81
274 -81 26 0 67 45 67 73 0 48 -30 68 -146 98 -115 30 -144 49 -144 96 0 28
41 73 67 73 43 0 2126 -540 2143 -555 9 -9 23 -42 29 -75 14 -70 40 -106 95
-131 52 -24 100 -24 152 0 55 25 81 61 95 131 6 33 19 66 29 75 10 9 141 47
291 86 151 38 369 94 484 124 807 207 1354 345 1369 345 25 0 66 -45 66 -73 0
-61 33 -51 -1048 -327 -557 -142 -1017 -262 -1022 -265 -6 -4 -26 -37 -44 -74
-38 -75 -96 -133 -165 -164 -65 -30 -197 -30 -262 0 -69 31 -127 89 -165 165
-22 43 -43 72 -58 78 -12 4 -184 49 -382 100 -498 127 -763 195 -941 241 -84
21 -164 39 -178 39 -57 0 -89 -86 -46 -124 12 -11 269 -82 703 -192 376 -96
699 -179 720 -185 29 -7 42 -19 66 -62 92 -162 299 -260 485 -229 142 25 273
113 339 229 16 29 37 54 46 57 9 3 355 91 767 196 1232 314 1206 307 1245 338
43 34 90 123 90 170 0 54 -20 109 -56 151 -40 46 -90 71 -158 80 l-50 6 -41
142 c-64 218 -74 224 -292 163 -81 -23 -156 -48 -165 -57 -24 -22 -23 -78 2
-103 27 -27 56 -25 180 9 57 17 105 29 106 28 8 -8 64 -220 60 -225 -6 -6
-1944 -502 -1961 -502 -5 0 -27 40 -47 90 l-36 89 51 15 c29 8 340 94 692 191
352 97 658 182 681 191 39 14 64 45 64 78 0 27 -41 66 -69 66 -15 0 -181 -43
-370 -95 -189 -52 -345 -94 -347 -92 -2 1 256 128 572 282 317 154 580 287
585 297 18 33 10 76 -17 97 -15 12 -33 21 -40 21 -18 0 -91 -34 -693 -329
-294 -143 -536 -259 -538 -257 -2 2 197 155 441 340 245 185 450 345 456 356
5 10 10 28 10 40 0 28 -44 70 -73 70 -17 0 -104 -60 -258 -177 -615 -465
-1025 -774 -1131 -855 l-117 -89 -323 244 c-178 134 -511 386 -741 560 -286
216 -427 317 -443 317 -14 0 -36 -11 -49 -25z m460 -970 c528 -146 968 -268
977 -271 14 -4 12 -16 -20 -95 -37 -89 -37 -90 -67 -84 -16 3 -214 52 -440
110 -225 58 -612 157 -860 220 -576 147 -636 162 -641 168 -3 3 9 55 27 116
26 89 35 110 48 106 9 -2 448 -124 976 -270z m1127 -497 c23 -57 24 -66 12
-90 -8 -15 -14 -38 -14 -52 0 -37 -10 -56 -30 -56 -20 0 -30 19 -30 56 0 14
-6 37 -14 52 -12 24 -11 33 12 90 14 34 28 62 32 62 4 0 18 -28 32 -62z"/>
</g>
</svg>
